<svg xmlns="http://www.w3.org/2000/svg" xmlns:xlink="http://www.w3.org/1999/xlink" width="62" height="20" viewBox="0 0 62 20"><defs><clipPath id="a"><rect width="62" height="20" transform="translate(0.357 0.135)" fill="#fff"/></clipPath></defs><g transform="translate(-0.357 -0.135)" clip-path="url(#a)"><path d="M26.968.147,16.587,7.936a8.874,8.874,0,0,0-3.2-4.841A9.259,9.259,0,0,0,7.808,1.189H.357v17.9h7.45a9.023,9.023,0,0,0,5.614-1.857,8.638,8.638,0,0,0,3.165-4.89l10.381,7.789,10.381-7.789v6.747h11.71V15.459H41.334V1.177H37.075V7.924l-9.847,7.789L25.1,13.9,29.9,10.262l5.054-3.889-2.93-2.338-9.847,7.523L20.051,9.741,29.9,2.473,26.968.135ZM4.343,4.811H7.534a4.679,4.679,0,0,1,1.912.412,5.14,5.14,0,0,1,1.614,1.139,5.461,5.461,0,0,1,1.118,1.732,5.825,5.825,0,0,1,0,4.228,5.6,5.6,0,0,1-1.056,1.744,5.014,5.014,0,0,1-1.6,1.211,4.716,4.716,0,0,1-2.024.448H4.343V4.811Zm58,10.648v3.634h-11.7V1.177h4.259V15.459h7.438Z" fill="rgba(217,239,222,0.8)"/></g></svg>