<svg xmlns="http://www.w3.org/2000/svg" xmlns:xlink="http://www.w3.org/1999/xlink" width="143" height="13" viewBox="0 0 143 13"><defs><clipPath id="a"><rect width="143" height="13" transform="translate(0.357 0.635)" fill="#fff"/></clipPath></defs><g transform="translate(-0.357 -0.635)" clip-path="url(#a)"><path d="M27.956,12.833v-.338c-.055,0-3.6.193-5.341.193-2.289,0-5.559-.048-5.559-.048l-15.043-.1v-.29l15.1-.048s3.27.048,5.559.048h5.287c0-.145-.055-.386-.055-.579-.054,0-3.543.241-5.232.241-2.289,0-5.559-.145-5.559-.145H13.24l-5.123-.145H2.067c0-.048.055-.241.055-.29a4.119,4.119,0,0,0,1.145.1,3.852,3.852,0,0,0,1.417-.193,6.883,6.883,0,0,0,1.635.193,8.427,8.427,0,0,1,2.017-.241c.981.241,1.363-.145,1.363-.145a1.305,1.305,0,0,0,.654.338,1.711,1.711,0,0,0,.763-.145,4.465,4.465,0,0,0,2.126.338c1.908,0,2.453-.917,2.453-.917h.054a.686.686,0,0,0,.054.435,1.141,1.141,0,0,0,.818.435,3.14,3.14,0,0,1,.436-1.787h.055l-.109.29a2.07,2.07,0,0,0,.164,1.449l.163-.1a2.259,2.259,0,0,1,0-1.159,2.756,2.756,0,0,1,.436-1.014h.109a3.887,3.887,0,0,0-.164.917,1.556,1.556,0,0,0,.927,1.4,1.009,1.009,0,0,0,.981-.241,11.133,11.133,0,0,0,2.18.29,6.729,6.729,0,0,0,2.889-.338s.163.241,1.362.241a11.353,11.353,0,0,0,1.581-.1c.109,0,.163,0,.218-.048a1.845,1.845,0,0,0-.109-.531,12.09,12.09,0,0,0-5.723-7.823l-.163.435A11.308,11.308,0,0,1,27.465,10.9a4.831,4.831,0,0,1-1.417.241c-.927,0-1.144-.241-1.144-.241a1.948,1.948,0,0,1-.927.193,1.52,1.52,0,0,1-.927-.338,2.412,2.412,0,0,1-1.526.483,2.379,2.379,0,0,1-1.962-.917,3.131,3.131,0,0,1-.327-.531h-.054a1.355,1.355,0,0,0,.109.386,2.749,2.749,0,0,0,.327.58.135.135,0,0,1-.054.241c-.109.048-.164-.048-.218-.1a2.421,2.421,0,0,1-.382-.724,5,5,0,0,1-.218-.966h-.109a4.186,4.186,0,0,0-.055.917,2.56,2.56,0,0,0,.218.821.164.164,0,0,1,.055.1c0,.145-.109.193-.218.193a.358.358,0,0,1-.273-.193c-.491-.724.109-2.173.273-2.608a4.537,4.537,0,0,0,.327-1.256,8.439,8.439,0,0,0,.49-.821A4.184,4.184,0,0,1,20,5.4a6.534,6.534,0,0,0,.981-1.3c.054-.1.382-.773.436-.917.054-.1.109-.241.163-.338a13.151,13.151,0,0,0,.327-1.352c0-.145-.273-.241-.273-.241a1.753,1.753,0,0,0-.436-.1c-.109,0-.218.1-.327.145-.163.048-.218,0-.218,0s-.218-.1-.327-.048c-.109,0-.218.145-.327.145a.954.954,0,0,1-.218.048,1.233,1.233,0,0,0-.272-.048,2.5,2.5,0,0,0-.436.241A15.624,15.624,0,0,0,14.33.906C6.863.906.759,6.217.65,12.833v.338H27.956ZM10.57,10.418c-.055,0,0-.048-.055-.048a16.179,16.179,0,0,1,2.671-4.877c.163.048.273.145.436.193A14.911,14.911,0,0,0,10.57,10.418Zm.818.338a14.566,14.566,0,0,1,2.507-4.925c.163.1.273.145.436.241A16.49,16.49,0,0,0,11.5,10.8C11.442,10.8,11.442,10.756,11.387,10.756Zm1.09.241h-.054a15.423,15.423,0,0,1,2.234-4.78,2.323,2.323,0,0,1,.382.241A18.255,18.255,0,0,0,12.477,11Zm1.036,0h-.054a15.165,15.165,0,0,1,1.908-4.3,1.151,1.151,0,0,1,.381.29A15.632,15.632,0,0,0,13.513,11Zm3.6-3.235a.97.97,0,0,1-.763-.29.913.913,0,0,0,.872.628c-.109,0-.163.048-.272.048a.906.906,0,0,1-.927-.821V7.135c.382.29,1.2.676,1.69.1V7.28A.669.669,0,0,1,17.11,7.762Zm1.526-1.883c0,.145-.109.193-.218.241-.055.048-.218.1-.218.145h-.055a.2.2,0,0,0-.109-.048V6.024a.209.209,0,0,1,0-.193c0-.145.164-.241.164-.241h.055l-.109.193c0,.048-.055.193,0,.29v.1l.055.048.055-.048c.109-.048.109-.1.109-.1s-.109-.1-.054-.193.218-.1.218-.1a.3.3,0,0,0,0-.241l.109.048C18.581,5.541,18.636,5.686,18.636,5.879Zm.708-4.1c.163-.048.218-.145.382-.193a1,1,0,0,1,.382,0c.109,0,.273-.145.381-.145s.163.048.273.048c.055.1.382-.1.436-.1s.272,0,.218.193c-.055.145-.163.579-.382,1.159a4.465,4.465,0,0,1-.272.531,3.874,3.874,0,0,1-.381.628c-.6.869-1.2.676-2.344,1.159a4.16,4.16,0,0,0-1.417.773.751.751,0,0,0-.273-.145,5.573,5.573,0,0,1,1.308-.724,8.541,8.541,0,0,0,2.453-1.3v-.1c-.327.193-.6.29-.709.386-1.308.579-1.8.724-2.4,1.014a9.785,9.785,0,0,0-.981.531c-.054-.048-.163-.1-.218-.145a8.807,8.807,0,0,1,1.036-.579c.6-.241,1.09-.483,2.507-1.207a12.214,12.214,0,0,0,1.362-.821.165.165,0,0,1,.055-.145c-.49.241-2.071,1.014-2.4,1.159-1.308.579-1.254.531-1.853.821a8.788,8.788,0,0,0-1.035.579c-.055-.048-.163-.1-.218-.145a8.8,8.8,0,0,1,1.036-.579c.6-.29.654-.338,2.017-.917.654-.29,1.853-1.014,2.507-1.352v-.1c-.654.338-2.562,1.207-2.834,1.352-1.308.531-1.472.579-2.071.869-.327.145-.654.338-.927.483l-.163-.145A9.814,9.814,0,0,1,15.911,4c.6-.29.709-.338,2.017-.917a13.338,13.338,0,0,0,1.417-.724c.163-.1.382-.193.545-.29s.272-.193.382-.241l-.055-.048c-.273.1-.654.29-.763.338-.708.338-1.581.724-1.853.821-1.308.579-1.472.628-2.071.917a3.963,3.963,0,0,0-.927.531l-.163-.145a6.43,6.43,0,0,1,1.09-.628c.6-.29.709-.338,2.016-.917a6.219,6.219,0,0,0,.6-.29A7.586,7.586,0,0,0,19.344,1.775Zm-4.469-.29a13.008,13.008,0,0,1,3.652.483,7.374,7.374,0,0,1-.981.483c-1.526.676-1.69.724-2.344,1.014a5.846,5.846,0,0,0-1.035.579,2.561,2.561,0,0,0-.436-.435,6.1,6.1,0,0,0-.654-.241,3.089,3.089,0,0,0-.6-.29,1.613,1.613,0,0,0-.654-.048,1.874,1.874,0,0,0-.6-.1c-.164,0-.382.1-.545.1-.218,0-.382-.048-.545-.048a2.117,2.117,0,0,1-.6.193,1.658,1.658,0,0,1-.49,0,4.952,4.952,0,0,1-.545.29c-.109.048-.436.048-.382.29,0,.193.491.241.491.241A15.279,15.279,0,0,1,12.8,5.2a8.261,8.261,0,0,0-.818,1.062,2.249,2.249,0,0,0-.49-.1c-.218,0-.436.1-.6.048a3.466,3.466,0,0,0-.709,0c-.272.048-.272.1-.49.145-.164.048-.327,0-.6.048a3.9,3.9,0,0,1-.491.29,2.8,2.8,0,0,0-.491.145c-.109.1-.109.193-.381.29-.164.1-.273.048-.436.193-.109.193-.109.338-.382.531-.327.241-.327.435-.273.483.109.193.6,0,.6,0a17.443,17.443,0,0,1,3.815-.628,27.936,27.936,0,0,0-1.254,2.511,3.1,3.1,0,0,1-.164.386H9.589c-.109-.1-.109-.241-.055-.579a4.2,4.2,0,0,1,.491-1.159H9.916c-.109.145-.436.676-.491.773-.109.193-.163.241-.381.676-.055.1-.164.29-.327.29-.109,0-.218-.048-.218-.145,0-.048.055-.145.109-.145a4.188,4.188,0,0,0,.545-.966H9.044a2.876,2.876,0,0,1-2.4,1.545A3.606,3.606,0,0,1,5.5,10.66a5.572,5.572,0,0,1-1.8.29,5.9,5.9,0,0,1-1.526-.193C3.321,5.541,8.389,1.485,14.875,1.485Z" fill="rgba(217,239,222,0.8)"/><path d="M52.7,12.881l-.109-.048c-.654-.29-.872-1.111-1.2-1.835L48.067,3.175H44.906v.241l.163.048a.822.822,0,0,1,.218.1c.163.1.327.29.109.773a.979.979,0,0,1-.109.435L42.671,11c-.273.676-.491,1.545-1.145,1.835l-.218.1v.241h3.543v-.241l-.272-.1c-.327-.1-.382-.386-.055-1.207l.382-1.111h3.761c.109.241.218.58.382,1.062s.436,1.111.055,1.3l-.218.1v.241H52.7ZM48.121,8.873H45.614l1.254-3.09Z" fill="rgba(217,239,222,0.8)"/><path d="M75.7,3.175v.241l.273.1c.436.145.381,1.062.381,1.642v6.036c0,.483,0,1.5-.381,1.642l-.273.1v.241h3.6v-.241l-.272-.1c-.436-.145-.382-1.159-.382-1.642V5.155c0-.821.109-1.545.382-1.642l.272-.1V3.175Z" fill="rgba(217,239,222,0.8)"/><path d="M62.182,3.175v.241l.272.1c.436.145.382,1.062.382,1.642v6.036c0,.483,0,1.5-.382,1.642l-.272.1v.241h3.6v-.241l-.272-.1c-.436-.145-.382-1.159-.382-1.642V5.155c0-.821.109-1.545.382-1.642l.272-.1V3.175Z" fill="rgba(217,239,222,0.8)"/><path d="M41.963,2.306A5.209,5.209,0,0,0,38.529,1.2H33.9v.241l.218.048c.6.241.545,1.545.545,2.511v6.567c0,.724,0,2.028-.545,2.221l-.218.1v.241h4.251v-.241l-.164-.1c-.763-.435-.763-1.4-.763-2.414V8.245l.436.145a4.939,4.939,0,0,0,1.363.241,3.815,3.815,0,0,0,4.088-3.815A3.269,3.269,0,0,0,41.963,2.306ZM37.821,7.714l-.382.048h-.218V3.272a6.337,6.337,0,0,1,1.035-.048,2.79,2.79,0,0,1,1.962.579,1.714,1.714,0,0,1,.545,1.4C40.764,6.7,39.238,7.618,37.821,7.714Z" fill="rgba(217,239,222,0.8)"/><path d="M99.9,1.2H92.541v.29l.327.1c.491.193.491,1.3.491,1.932v7.243c0,.579,0,1.787-.491,1.98l-.327.1v.29h4.088v-.29l-.327-.1c-.491-.193-.491-1.352-.491-1.98V8.39h2.4s1.036-.1,1.2.29l.055.145.272.048L99.9,5.686h-.382l-.054.193c-.109.241-1.036.338-1.308.29h-2.4V3.224H98.7c.708,0,1.09.145,1.2.483l.054.193h.327l.763-2.849C101.152,1.147,100.171,1.2,99.9,1.2Z" fill="rgba(217,239,222,0.8)"/><path d="M60.983,10.467l-.055.048a.947.947,0,0,1-.218.145,5.951,5.951,0,0,1-2.834.821,3.331,3.331,0,0,1-2.18-.724,3.679,3.679,0,0,1-1.09-2.8,2.874,2.874,0,0,1,2.943-3.09A4.786,4.786,0,0,1,60,5.589l.218.145.436.241V3.368l-.327-.048A12.985,12.985,0,0,0,57.6,2.934a5.633,5.633,0,0,0-3.815,1.352,5.115,5.115,0,0,0-1.635,3.863,4.9,4.9,0,0,0,1.58,3.815,6.44,6.44,0,0,0,4.306,1.4,5.148,5.148,0,0,0,2.343-.483h.055l.109-.048.055-.1.763-2.318h-.382Z" fill="rgba(217,239,222,0.8)"/><path d="M88.834,10.467l-.327.193a5.951,5.951,0,0,1-2.834.821,3.331,3.331,0,0,1-2.18-.724,3.679,3.679,0,0,1-1.09-2.8,2.874,2.874,0,0,1,2.943-3.09,4.787,4.787,0,0,1,2.453.724l.654.386V3.368L88.18,3.32a12.988,12.988,0,0,0-2.725-.386A5.633,5.633,0,0,0,81.64,4.286,5.115,5.115,0,0,0,80,8.149a4.9,4.9,0,0,0,1.581,3.815,6.44,6.44,0,0,0,4.306,1.4,5.149,5.149,0,0,0,2.344-.483l.163-.048.817-2.414h-.382Z" fill="rgba(217,239,222,0.8)"/><path d="M73.792,3.175H67.2v.241l.272.1c.436.145.382,1.062.382,1.642v6.036c0,.483,0,1.5-.382,1.642l-.272.1v.241h3.6v-.241l-.272-.1c-.436-.145-.382-1.159-.382-1.642V9.211H72.1s.871-.048.98.241l.055.145.218.048.164-2.656h-.273l-.054.145c-.054.193-.871.29-1.09.241H70.086V4.914h2.67c.6,0,.927.145,1.036.386l.054.145h.272l.654-2.366A9.5,9.5,0,0,1,73.792,3.175Z" fill="rgba(217,239,222,0.8)"/><path d="M120.009,3.175v.241l.218.1c.491.29.545.724.545,1.545V9.646c-1.526-1.932-4.9-6.519-4.9-6.519h-2.617v.241l.219.1c.49.29.545.773.545,1.594v5.988c0,.821,0,1.449-.545,1.738l-.164.1v.241h3.325v-.241l-.218-.1c-.491-.1-.491-.918-.491-1.738V6.7l3.27,4.153a6.046,6.046,0,0,0,2.616,2.173,2.545,2.545,0,0,0,.981.193V5.107c0-.821,0-1.3.545-1.594l.218-.1V3.175Z" fill="rgba(217,239,222,0.8)"/><path d="M133.417,4.624a7.041,7.041,0,0,0-4.741-1.5h-4.088v.241l.218.048.109.048c.49.145.381,1.159.381,1.69v6.036c0,.724,0,1.352-.6,1.69l-.164.1v.193h4.034c3.705,0,6.322-2.076,6.322-5.07A4.485,4.485,0,0,0,133.417,4.624Zm-1.908,6.036a4.654,4.654,0,0,1-3.869.918V4.817a4.654,4.654,0,0,1,3.869.724,3.526,3.526,0,0,1,.981,2.7A3.356,3.356,0,0,1,131.509,10.66Z" fill="rgba(217,239,222,0.8)"/><path d="M111.234,11.336V5.058c0-.724,0-1.4.545-1.545L112,3.465l-.163-.29h-3.706v.241l.218.048c.545.193.49.966.49,1.5V9.742a1.392,1.392,0,0,1-.272,1.062,2.791,2.791,0,0,1-2.126.869,2.232,2.232,0,0,1-1.58-.483,2.5,2.5,0,0,1-.709-2.028V4.913c0-.579,0-1.352.491-1.5l.218-.048V3.175h-3.815v.241l.218.048c.49.145.545,1.062.49,1.787v4.1a3.645,3.645,0,0,0,.927,2.946,4.617,4.617,0,0,0,3.215,1.111,5.472,5.472,0,0,0,2.889-1.014v.773h3.106v-.241l-.218-.048C111.234,12.688,111.18,12.06,111.234,11.336Z" fill="rgba(217,239,222,0.8)"/><path d="M143.064,10.129a2.773,2.773,0,0,1-1.09,2.125,4.815,4.815,0,0,1-3.216,1.111,8.756,8.756,0,0,1-2.779-.435h-.055l-.109-.048v-.145l-.436-1.787-.054-.29-.055-.241h.273l.381.386a4.789,4.789,0,0,0,3,.966c.708,0,1.744-.435,1.744-1.159,0-.821-.872-1.207-2.017-1.69-1.362-.579-3-1.3-3-3.139,0-2.076,2.18-2.8,4.033-2.8a7.053,7.053,0,0,1,2.289.338h.055l.163.048V5.541L141.81,5.3l-.381-.193a4.306,4.306,0,0,0-1.853-.483,2,2,0,0,0-1.254.386.788.788,0,0,0-.272.628c0,.724.981,1.159,2.016,1.593C141.374,7.811,143.064,8.535,143.064,10.129Z" fill="rgba(217,239,222,0.8)"/></g></svg>