<svg xmlns="http://www.w3.org/2000/svg" xmlns:xlink="http://www.w3.org/1999/xlink" width="120" height="22.8" viewBox="0 0 120 22.8"><defs><clipPath id="a"><rect width="120" height="22.8" transform="translate(0.357 0.735)" fill="#fff"/></clipPath></defs><g transform="translate(-0.357 -0.735)" clip-path="url(#a)"><g clip-path="url(#a)"><path d="M10.709,16.431l3.341,3.413-2.787,2.968a2.216,2.216,0,0,1-3.273,0L1.035,15.406a2.58,2.58,0,0,1,0-3.486,2.216,2.216,0,0,1,3.273,0l5.319,5.665Zm.868-.925,2.959-3.151,3.273,3.486-2.725,2.9Z" fill="#d9efde" fill-rule="evenodd"/><path d="M24.966,18.677,21.479,15.42l8.195-8.728a2.216,2.216,0,0,1,3.273,0,2.58,2.58,0,0,1,0,3.486Zm-1.084,1.155-2.8,2.981a2.216,2.216,0,0,1-3.273,0L5.945,10.176a2.58,2.58,0,0,1,0-3.486,2.215,2.215,0,0,1,3.273,0L19.446,17.584l1.15-1.225Z" fill="#d9efde" fill-rule="evenodd"/><path d="M19.937,14.62l3.257-3.5,6.071,6.466,5.317-5.663a2.216,2.216,0,0,1,3.273,0,2.58,2.58,0,0,1,0,3.486L30.9,22.813a2.215,2.215,0,0,1-3.273,0Zm-1.35-1.437L10.855,4.947a2.58,2.58,0,0,1,0-3.486,2.215,2.215,0,0,1,3.273,0l7.741,8.245Z" fill="#d9efde" fill-rule="evenodd"/><path d="M28.036,1.462a2.216,2.216,0,0,0-3.273,0L14.536,12.355l3.273,3.486L28.036,4.948A2.58,2.58,0,0,0,28.036,1.462Z" fill="#d9efde" fill-rule="evenodd"/><path d="M50.515,3.165H47.669V20.97H58.1V18.281H50.515ZM64.256,8.519a4.109,4.109,0,0,1,3.529,1.671l.137-1.429H70.38V20.97H67.922l-.137-1.429a4.11,4.11,0,0,1-3.529,1.672c-3.119,0-5.237-2.689-5.237-6.347C59.019,11.183,61.137,8.519,64.256,8.519Zm.592,2.568c-1.776,0-3.051,1.478-3.051,3.779s1.275,3.779,3.051,3.779a3.136,3.136,0,0,0,2.8-1.817V12.9A3.136,3.136,0,0,0,64.848,11.086Zm12.421-6.42H74.536V8.761H72.373v2.471h2.163v5.426c0,2.955,1.662,4.554,4.28,4.554a4.465,4.465,0,0,0,2.55-.727l-.729-2.277a2.862,2.862,0,0,1-1.571.388,1.756,1.756,0,0,1-1.8-1.962v-5.4h3.461V8.761H77.268Zm9.415,0H83.951V8.761H81.788v2.471h2.163v5.426c0,2.955,1.662,4.554,4.28,4.554a4.465,4.465,0,0,0,2.55-.727l-.729-2.277a2.862,2.862,0,0,1-1.571.388,1.756,1.756,0,0,1-1.8-1.962v-5.4h3.461V8.761H86.684Zm8.664,4.094H92.615V20.97h2.732ZM93.981,3.068A1.694,1.694,0,0,0,92.3,4.861a1.7,1.7,0,1,0,3.392,0A1.7,1.7,0,0,0,93.981,3.068Zm9.62,5.451c-3.529,0-5.874,2.665-5.874,6.347,0,3.658,2.368,6.347,5.9,6.347a5.229,5.229,0,0,0,4.668-2.689L106.334,16.9a3.106,3.106,0,0,1-2.687,1.769c-2.026,0-3.142-1.672-3.142-3.8,0-2.156,1.07-3.8,3.119-3.8a2.958,2.958,0,0,1,2.641,1.744l1.981-1.6A5.166,5.166,0,0,0,103.6,8.519Zm11.374,0c3.529,0,5.259,2.81,5.259,6.226v1.017h-8.105a2.8,2.8,0,0,0,3.073,3,3.347,3.347,0,0,0,2.846-1.405l1.89,1.647a5.614,5.614,0,0,1-4.758,2.2c-3.552,0-5.829-2.665-5.829-6.323C109.351,11.208,111.673,8.519,114.975,8.519Zm-.046,2.326a2.75,2.75,0,0,0-2.8,2.834h5.418C117.479,12.007,116.568,10.844,114.929,10.844Z" fill="rgba(217,239,222,0.8)" fill-rule="evenodd"/></g></g></svg>