<svg xmlns="http://www.w3.org/2000/svg" xmlns:xlink="http://www.w3.org/1999/xlink" width="80" height="24.27" viewBox="0 0 80 24.27"><defs><clipPath id="a"><rect width="80" height="24.27" transform="translate(0.357)" fill="#fff"/></clipPath></defs><g transform="translate(-0.357)" clip-path="url(#a)"><g clip-path="url(#a)"><path d="M49.079,13.642a5.357,5.357,0,0,1-.16-1.083V5.344h2.734v13.9L42.9,11.58a4.254,4.254,0,0,1-.746-.89,4.416,4.416,0,0,1,.139.966l0,7.271H39.554V5.084l8.674,7.506A5.451,5.451,0,0,1,49.079,13.642Z" fill="rgba(217,239,222,0.8)"/><path d="M73.838,5.345c4.333,0,5.443,1.806,5.443,4.4a3.963,3.963,0,0,1-3.954,3.942l-.29.015a1.1,1.1,0,0,1,.523.319l4.8,4.9H76.65l-6.7-7.186h3.335c2.987,0,3.074-1.663,3.094-2.083.056-1.08-.271-1.943-2.549-1.943H70.02V18.926H67.178V5.345Z" fill="rgba(217,239,222,0.8)"/><path d="M52.883,12.329c0-5.69,4.507-7.185,8.3-7.185a18.96,18.96,0,0,1,4.274.46l0,2.885a13.6,13.6,0,0,0-4.277-.844c-3.592,0-5.336,1.474-5.336,4.683,0,2.628,1.88,4.3,5.336,4.3a13.929,13.929,0,0,0,4.555-.807l-.005,2.8a21.58,21.58,0,0,1-4.55.509C57.132,19.133,52.883,17.055,52.883,12.329Z" fill="rgba(217,239,222,0.8)"/><path d="M22.112,5.694l2.667,2.654c-.073.034-.157.077-.256.129a5.1,5.1,0,0,0-.559.36A10.991,10.991,0,0,0,22.219,10.5L17.007,16.33a9.566,9.566,0,0,1-2.645,2.206l-2.668-2.655c.073-.036.157-.076.254-.131a5.164,5.164,0,0,0,.559-.358,11.179,11.179,0,0,0,1.746-1.666l5.211-5.819A9.631,9.631,0,0,1,22.112,5.694Z" fill="rgba(217,239,222,0.8)"/><path d="M11.789,19.783a6.477,6.477,0,0,0,3-.65,8.758,8.758,0,0,0,1.228-.844A14.171,14.171,0,0,0,17.5,16.87l5.217-5.812A7.063,7.063,0,0,1,25.3,8.963l2.676,2.679c-.558.631-7.219,8.127-7.219,8.127-.454.518-.932,1.018-1.258,1.333s-.847.758-1.123.971a10.274,10.274,0,0,1-6.476,2.2A11.809,11.809,0,0,1,.357,12.456c0-7.844,5.8-12.4,11.082-12.4a10.528,10.528,0,0,1,3.946.606A14.9,14.9,0,0,1,17.57,1.7a12.012,12.012,0,0,0-2.19,2.091L14.309,5.006a7.091,7.091,0,0,0-2.742-.458A7.377,7.377,0,0,0,4.6,12.32,7.439,7.439,0,0,0,11.789,19.783Z" fill="rgba(217,239,222,0.8)"/><path d="M21.653,5.136a8.947,8.947,0,0,0-1.23.844A14.56,14.56,0,0,0,18.937,7.4l-5.216,5.813a7.062,7.062,0,0,1-2.587,2.094L8.458,12.629C9.018,12,15.678,4.5,15.678,4.5c.455-.518.932-1.018,1.258-1.334s.847-.756,1.125-.971A10.268,10.268,0,0,1,24.537,0,11.807,11.807,0,0,1,36.081,11.813c0,7.846-5.8,12.4-11.082,12.4a10.429,10.429,0,0,1-3.944-.607,14.791,14.791,0,0,1-2.19-1.034,12.435,12.435,0,0,0,2.194-2.087l1.07-1.215a7.156,7.156,0,0,0,2.744.458,7.383,7.383,0,0,0,6.962-7.774,7.443,7.443,0,0,0-7.186-7.462A6.467,6.467,0,0,0,21.653,5.136Z" fill="rgba(217,239,222,0.8)"/></g></g></svg>