<svg xmlns="http://www.w3.org/2000/svg" xmlns:xlink="http://www.w3.org/1999/xlink" width="67" height="21" viewBox="0 0 67 21"><defs><clipPath id="a"><rect width="67" height="21" transform="translate(0.357 0.635)" fill="#fff"/></clipPath></defs><g transform="translate(-0.357 -0.635)" clip-path="url(#a)"><g clip-path="url(#a)"><path d="M16.986,21.635l37.254-3.4H13.757Z" fill="rgba(217,239,222,0.8)"/><path d="M62.877,4.206a3.832,3.832,0,0,0-2.139.723V4.461h-2.5V16.023h2.5V9.264a2.279,2.279,0,0,1,.118-.872,2.195,2.195,0,0,1,.437-.751,2.066,2.066,0,0,1,.684-.506,1.967,1.967,0,0,1,1.638,0,2.067,2.067,0,0,1,.684.506,2.2,2.2,0,0,1,.437.751,2.279,2.279,0,0,1,.118.872v6.8h2.5v-6.8C67.357,6.459,65.541,4.206,62.877,4.206Z" fill="rgba(217,239,222,0.8)"/><path d="M52.464,4.163c-2.906,0-4.965,2.678-4.965,6.079,0,3.571,2.583,6.079,5.207,6.079a5.072,5.072,0,0,0,4.4-2.593l-2.22-1.36C53.19,15,50.325,13.685,50,11.007h7.184C57.832,6.926,55.289,4.163,52.464,4.163Zm-2.3,4.591c.525-2.678,4-2.848,4.48,0Z" fill="rgba(217,239,222,0.8)"/><path d="M41.784,12.627a4.141,4.141,0,0,0,.233,1.556,3.985,3.985,0,0,0,.792,1.336,3.753,3.753,0,0,0,1.225.9,3.588,3.588,0,0,0,1.463.328,5.072,5.072,0,0,0,2.422-.723l-1.614-2.3a1.472,1.472,0,0,1-.848.3,1.162,1.162,0,0,1-.48-.121,1.219,1.219,0,0,1-.395-.312,1.294,1.294,0,0,1-.243-.452,1.34,1.34,0,0,1-.052-.517V7.654h2.139V4.891H44.287V2h-2.5V4.891H40.452V7.654h1.332Z" fill="rgba(217,239,222,0.8)"/><path d="M35.351,16.321A3.831,3.831,0,0,0,37.49,15.6v.425h2.5V4.461h-2.5v6.8a2.279,2.279,0,0,1-.118.872,2.194,2.194,0,0,1-.437.751,2.066,2.066,0,0,1-.684.506,1.967,1.967,0,0,1-1.638,0,2.067,2.067,0,0,1-.684-.506,2.2,2.2,0,0,1-.437-.751,2.279,2.279,0,0,1-.118-.872v-6.8h-2.5v6.8C30.871,14.068,32.687,16.321,35.351,16.321Z" fill="rgba(217,239,222,0.8)"/><path d="M23.969,11.3l3.713,4.761h3.471L26.188,9.9l4.278-5.441H27L23.969,8.5V.635H21.426V16.066h2.543Z" fill="rgba(217,239,222,0.8)"/><path d="M17.511,15.513v.51h2.5V4.461h-2.5v.51a3.921,3.921,0,0,0-2.341-.808c-2.825,0-5,2.721-5,6.079s2.139,6.079,5,6.079A3.831,3.831,0,0,0,17.511,15.513Zm-4.8-5.229c0-1.828,1.009-3.273,2.422-3.273s2.381,1.445,2.381,3.273-.969,3.273-2.381,3.273S12.708,12.113,12.708,10.285Z" fill="rgba(217,239,222,0.8)"/><path d="M9.358,6.544A5.115,5.115,0,0,0,7.973,3.028,4.609,4.609,0,0,0,4.635,1.57H.357V16.024H2.981V11.56H4.8l3.189,4.464h3.269l-3.875-5.4A4.871,4.871,0,0,0,8.846,8.841,5.152,5.152,0,0,0,9.358,6.544Zm-4.682,2.3h-1.7V4.333h1.7a2.086,2.086,0,0,1,1.513.66,2.339,2.339,0,0,1,0,3.186A2.086,2.086,0,0,1,4.676,8.839Z" fill="rgba(217,239,222,0.8)"/></g></g></svg>