<svg xmlns="http://www.w3.org/2000/svg" xmlns:xlink="http://www.w3.org/1999/xlink" width="87" height="17" viewBox="0 0 87 17"><defs><clipPath id="a"><rect width="87" height="17" transform="translate(0.357 0.635)" fill="#fff"/></clipPath></defs><g transform="translate(-0.357 -0.635)" clip-path="url(#a)"><path d="M58.213,15.318a4.309,4.309,0,0,0,3.1-1.231l1.54,1.691a5.988,5.988,0,0,1-4.615,1.856,5.8,5.8,0,0,1-6.178-5.981A5.972,5.972,0,0,1,52.457,9.4,5.88,5.88,0,0,1,53.667,7.47,5.746,5.746,0,0,1,55.51,6.162,5.648,5.648,0,0,1,57.7,5.673h.208c3.727,0,5.841,2.894,5.656,6.911H54.745a3.191,3.191,0,0,0,3.468,2.73ZM60.9,10.656a2.838,2.838,0,0,0-2.973-2.7,2.989,2.989,0,0,0-2.114.71,3.109,3.109,0,0,0-1.068,1.992Z" fill="rgba(217,239,222,0.8)"/><path d="M.357,15.194,7.14,8.163H.518V5.954h9.764V8.207L3.5,15.238h6.874v2.2H.357Z" fill="rgba(217,239,222,0.8)"/><path d="M17.989,15.318a4.309,4.309,0,0,0,3.1-1.231l1.54,1.691a5.988,5.988,0,0,1-4.615,1.856,5.8,5.8,0,0,1-6.178-5.981A5.972,5.972,0,0,1,12.232,9.4,5.879,5.879,0,0,1,13.44,7.473a5.746,5.746,0,0,1,1.84-1.309,5.649,5.649,0,0,1,2.191-.491h.208c3.727,0,5.841,2.894,5.656,6.911H14.521a3.191,3.191,0,0,0,3.468,2.73Zm2.687-4.662a2.838,2.838,0,0,0-2.973-2.7,2.989,2.989,0,0,0-2.113.71,3.108,3.108,0,0,0-1.068,1.992Z" fill="rgba(217,239,222,0.8)"/><path d="M37.973,11.666a5.684,5.684,0,0,1,5.652-5.973,4.787,4.787,0,0,1,2.063.438,4.879,4.879,0,0,1,1.688,1.286V.635h2.4V17.41h-2.4v-1.6a4.832,4.832,0,0,1-1.685,1.347,4.734,4.734,0,0,1-2.09.469,5.577,5.577,0,0,1-2.169-.458A5.671,5.671,0,0,1,39.6,15.9a5.806,5.806,0,0,1-1.216-1.889,5.9,5.9,0,0,1-.416-2.22V11.65Zm9.537-.04a3.725,3.725,0,0,0-1.088-2.58,3.562,3.562,0,0,0-5.09.041,3.742,3.742,0,0,0,0,5.195,3.562,3.562,0,0,0,5.09.041,3.725,3.725,0,0,0,1.088-2.58Z" fill="rgba(217,239,222,0.8)"/><path d="M65.118,14.973l2.168-1.151a3.259,3.259,0,0,0,1.219,1.248,3.174,3.174,0,0,0,1.675.427c1.355,0,2.058-.709,2.058-1.515,0-.918-1.312-1.126-2.749-1.423-1.921-.4-3.928-1.058-3.928-3.423,0-1.816,1.693-3.491,4.364-3.471A5.124,5.124,0,0,1,74.47,7.894L72.487,9.021a2.942,2.942,0,0,0-1.1-.991,2.873,2.873,0,0,0-1.433-.32c-1.288,0-1.944.645-1.944,1.379,0,.826,1.041,1.058,2.667,1.423,1.854.4,3.955,1.034,3.955,3.423,0,1.6-1.355,3.724-4.568,3.7a5.257,5.257,0,0,1-4.949-2.666" fill="rgba(217,239,222,0.8)"/><path d="M81.143,12.307l-1.9,2.113v2.99h-2.4V.635h2.4V11.618l5.086-5.7h2.918l-4.411,4.918,4.521,6.574h-2.71Z" fill="rgba(217,239,222,0.8)"/><path d="M30.73,5.69A4.93,4.93,0,0,0,25.5,10.7v6.71h2.443V11a2.7,2.7,0,0,1,2.871-3.01c1.811,0,2.714,1.126,2.714,3.01V17.41h2.431V10.7a4.93,4.93,0,0,0-5.232-5.011" fill="rgba(217,239,222,0.8)"/></g></svg>