<svg xmlns="http://www.w3.org/2000/svg" width="105.225" height="18.368" viewBox="0 0 105.225 18.368">
  <g id="Group_1" data-name="Group 1" transform="translate(-0.452 -1.808)">
    <path id="Path_1" data-name="Path 1" d="M15.893,2.426a1,1,0,0,0-1.868.052L11.549,9.567a1,1,0,0,1-1.822.148L7.362,5.369A1,1,0,0,0,5.55,5.49L.519,18.643A1,1,0,0,0,1.453,20H21.663a1,1,0,0,0,.924-1.382Z" fill="#232e26"/>
    <path id="Path_2" data-name="Path 2" d="M38.039,6.525h-4.8V20H30.284V6.525h-4.8V4.094H38.039Zm1.342,4.147a4.8,4.8,0,0,1,1.254-1.584,2.657,2.657,0,0,1,1.716-.583,2.1,2.1,0,0,1,1.254.341l-.176,2.035a.538.538,0,0,1-.165.286.438.438,0,0,1-.275.077,3.3,3.3,0,0,1-.495-.055,3.681,3.681,0,0,0-.627-.055,2.277,2.277,0,0,0-.8.132,2.034,2.034,0,0,0-.638.385,2.665,2.665,0,0,0-.495.594,6.314,6.314,0,0,0-.4.8V20H36.819V8.714h1.6A.855.855,0,0,1,39,8.868a.845.845,0,0,1,.22.528Zm10.8,4.51a14.29,14.29,0,0,0-1.98.209,5.138,5.138,0,0,0-1.287.374,1.692,1.692,0,0,0-.693.539,1.17,1.17,0,0,0-.209.671A1.187,1.187,0,0,0,46.426,18a1.861,1.861,0,0,0,1.111.308,3.239,3.239,0,0,0,1.441-.3,4.359,4.359,0,0,0,1.2-.924Zm-6.226-4.9a6.7,6.7,0,0,1,4.686-1.782,4.512,4.512,0,0,1,1.771.33,3.65,3.65,0,0,1,1.32.9,3.745,3.745,0,0,1,.814,1.375,5.214,5.214,0,0,1,.286,1.76V20H51.6A1.3,1.3,0,0,1,51,19.89a.828.828,0,0,1-.33-.473L50.43,18.6a10.715,10.715,0,0,1-.836.682,5.142,5.142,0,0,1-.847.484,4.318,4.318,0,0,1-.946.3,5.083,5.083,0,0,1-1.1.11,4.45,4.45,0,0,1-1.32-.187,2.966,2.966,0,0,1-1.045-.583,2.592,2.592,0,0,1-.682-.957,3.393,3.393,0,0,1-.242-1.331,2.6,2.6,0,0,1,.143-.847,2.525,2.525,0,0,1,.462-.814,4.018,4.018,0,0,1,.847-.726,5.494,5.494,0,0,1,1.265-.594,10.787,10.787,0,0,1,1.76-.407,16.846,16.846,0,0,1,2.288-.2v-.66a2.448,2.448,0,0,0-.484-1.672,1.762,1.762,0,0,0-1.4-.55,3.366,3.366,0,0,0-1.1.154,4.3,4.3,0,0,0-.759.352l-.6.341a1.157,1.157,0,0,1-.594.154.8.8,0,0,1-.484-.143,1.313,1.313,0,0,1-.319-.352ZM57.543,8.714V20H54.815V8.714Zm.374-3.289a1.547,1.547,0,0,1-.143.66,1.765,1.765,0,0,1-.385.539,1.824,1.824,0,0,1-.55.374,1.766,1.766,0,0,1-.682.132A1.738,1.738,0,0,1,55.486,7a1.844,1.844,0,0,1-.913-.913,1.658,1.658,0,0,1-.132-.66,1.766,1.766,0,0,1,.132-.682,1.825,1.825,0,0,1,.374-.55,1.7,1.7,0,0,1,.539-.363,1.623,1.623,0,0,1,.671-.143,1.648,1.648,0,0,1,.682.143,1.672,1.672,0,0,1,.55.363,1.727,1.727,0,0,1,.385.55A1.647,1.647,0,0,1,57.917,5.425ZM62.4,3.654V20H59.686V3.654Zm15.713.44V20h-2.97V13.048H67.677V20h-2.97V4.094h2.97v6.842h7.469V4.094Zm5.119,4.62V20H80.507V8.714Zm.374-3.289a1.549,1.549,0,0,1-.143.66,1.766,1.766,0,0,1-.385.539,1.824,1.824,0,0,1-.55.374,1.766,1.766,0,0,1-.682.132A1.738,1.738,0,0,1,81.178,7a1.844,1.844,0,0,1-.913-.913,1.658,1.658,0,0,1-.132-.66,1.766,1.766,0,0,1,.132-.682,1.823,1.823,0,0,1,.374-.55,1.7,1.7,0,0,1,.539-.363,1.622,1.622,0,0,1,.671-.143,1.648,1.648,0,0,1,.682.143,1.672,1.672,0,0,1,.55.363,1.729,1.729,0,0,1,.385.55A1.649,1.649,0,0,1,83.609,5.425ZM95.52,8.714,91.043,20H88.579L84.1,8.714h2.244a.843.843,0,0,1,.506.143.665.665,0,0,1,.275.363l2.178,6.028q.176.528.308,1.034t.231,1.012q.11-.506.242-1.012t.319-1.034L92.627,9.22a.744.744,0,0,1,.275-.363.786.786,0,0,1,.473-.143Zm7.715,4.345a3.1,3.1,0,0,0-.154-.99,2.286,2.286,0,0,0-.44-.825,2.009,2.009,0,0,0-.759-.55,2.486,2.486,0,0,0-1.056-.209,2.536,2.536,0,0,0-1.859.671,3.31,3.31,0,0,0-.858,1.9ZM98.054,14.7a5.417,5.417,0,0,0,.308,1.507A3.145,3.145,0,0,0,99,17.25a2.6,2.6,0,0,0,.935.616,3.548,3.548,0,0,0,1.21.2,3.678,3.678,0,0,0,1.133-.154,5.025,5.025,0,0,0,.836-.341q.363-.187.627-.341a1.085,1.085,0,0,1,.528-.154.561.561,0,0,1,.506.253l.781.99a4.634,4.634,0,0,1-1.012.891,6.006,6.006,0,0,1-1.177.572,6.517,6.517,0,0,1-1.243.3,8.777,8.777,0,0,1-1.221.088,6.106,6.106,0,0,1-2.189-.385,5,5,0,0,1-1.76-1.155,5.488,5.488,0,0,1-1.177-1.892,7.367,7.367,0,0,1-.429-2.618,6.2,6.2,0,0,1,.374-2.167,5.2,5.2,0,0,1,1.067-1.771,5.085,5.085,0,0,1,1.705-1.2,5.655,5.655,0,0,1,2.277-.44,5.521,5.521,0,0,1,1.969.341,4.244,4.244,0,0,1,1.551,1,4.479,4.479,0,0,1,1.012,1.606,5.847,5.847,0,0,1,.374,2.167,1.8,1.8,0,0,1-.132.836.552.552,0,0,1-.506.209Z" fill="#232e26"/>
  </g>
</svg>
